<svg xmlns="http://www.w3.org/2000/svg" viewBox="0 0 280 280" role="img" aria-labelledby="title desc">
  <title id="title">Grand Funding seal stamp</title>
  <desc id="desc">A filled art deco GF stamp for premium collateral.</desc>
  <defs>
    <linearGradient id="paper" x1="52" y1="52" x2="228" y2="228" gradientUnits="userSpaceOnUse">
      <stop offset="0" stop-color="#F9F4EC"/>
      <stop offset="1" stop-color="#EEE6DA"/>
    </linearGradient>
    <linearGradient id="accent" x1="46" y1="36" x2="226" y2="236" gradientUnits="userSpaceOnUse">
      <stop offset="0" stop-color="#4ADFD0"/>
      <stop offset="0.5" stop-color="#14B8A6"/>
      <stop offset="1" stop-color="#B8893E"/>
    </linearGradient>
    <filter id="shadow" x="-30%" y="-30%" width="160%" height="160%">
      <feDropShadow dx="7" dy="8" stdDeviation="9" flood-color="#0D0D12" flood-opacity="0.12"/>
    </filter>
  </defs>
  <g filter="url(#shadow)" transform="rotate(-7 140 140)">
    <rect x="52" y="52" width="176" height="176" rx="34" fill="url(#paper)" stroke="url(#accent)" stroke-width="10"/>
    <rect x="68" y="68" width="144" height="144" rx="24" fill="none" stroke="#11141B" stroke-opacity="0.12" stroke-width="3"/>
    <path d="M180 92H114c-23 0-42 19-42 42v12c0 24 18 42 42 42h45c21 0 38-17 38-38v-5h-34" fill="none" stroke="#11141B" stroke-linecap="square" stroke-linejoin="miter" stroke-width="18"/>
    <path d="M119 88v102M119 88h64M119 132h47" fill="none" stroke="url(#accent)" stroke-linecap="square" stroke-linejoin="miter" stroke-width="16"/>
    <path d="M94 66h22M66 94v22M188 214h22M214 186v22" fill="none" stroke="url(#accent)" stroke-linecap="square" stroke-width="4" opacity="0.6"/>
  </g>
</svg>
