<svg xmlns="http://www.w3.org/2000/svg" viewBox="0 0 256 256" role="img" aria-labelledby="title desc">
  <title id="title">Grand Funding seal</title>
  <desc id="desc">A framed Grand Funding GF monogram seal.</desc>
  <rect x="20" y="20" width="216" height="216" rx="52" fill="none" stroke="#D4A853" stroke-width="10"/>
  <path fill="#F8F8F5" d="M176 58c22.1 0 40 17.9 40 40v18h-34v-10c0-7.7-6.3-14-14-14h-64c-7.7 0-14 6.3-14 14v44c0 7.7 6.3 14 14 14h64c7.7 0 14-6.3 14-14v-8h-34v-28h68v36c0 22.1-17.9 40-40 40H96c-30.9 0-56-25.1-56-56v-28c0-30.9 25.1-56 56-56h80Z"/>
  <path fill="#2DD4BF" d="M104 72h92v22h-64v18h50v20h-50v58h-28V72Z"/>
</svg>
